<?xml version="1.0" encoding="utf-8"?>
<!-- Generator: Adobe Illustrator 26.0.2, SVG Export Plug-In . SVG Version: 6.00 Build 0)  -->
<svg version="1.1" id="Layer_1" xmlns="http://www.w3.org/2000/svg" xmlns:xlink="http://www.w3.org/1999/xlink" x="0px" y="0px"
	 viewBox="0 0 120 120" style="enable-background:new 0 0 120 120;" xml:space="preserve">
<style type="text/css">
	.st0{fill-rule:evenodd;clip-rule:evenodd;fill:url(#SVGID_1_);fill-opacity:0.25;}
	
		.st1{fill-rule:evenodd;clip-rule:evenodd;fill:url(#SVGID_00000150815486014801724730000002702840905284709040_);fill-opacity:0.25;}
	
		.st2{fill-rule:evenodd;clip-rule:evenodd;fill:url(#SVGID_00000169546937876337758380000004368423147548859310_);fill-opacity:0.25;}
</style>
<radialGradient id="SVGID_1_" cx="-483.1332" cy="1002.8836" r="1" gradientTransform="matrix(53.5 -50 -37.556 -40.1849 63571.8945 16204.7549)" gradientUnits="userSpaceOnUse">
	<stop  offset="0" style="stop-color:#801AB3;stop-opacity:0"/>
	<stop  offset="1" style="stop-color:#4C4CFF"/>
</radialGradient>
<path class="st0" d="M110.4,49.1c4.1,7.1,4.1,15.9,0,23.1L95.1,99.1c-4.1,7.1-11.6,11.5-19.8,11.5H44.7c-8.1,0-15.7-4.4-19.8-11.5
	L9.6,72.2c-4.1-7.1-4.1-15.9,0-23.1l15.3-26.9c4.1-7.1,11.6-11.5,19.8-11.5h30.7c8.1,0,15.7,4.4,19.8,11.5L110.4,49.1z"/>
<radialGradient id="SVGID_00000134971948760391262390000000256960066531517056_" cx="-483.9597" cy="1002.5185" r="1" gradientTransform="matrix(49 -51 -38.3642 -36.8596 62234.793 12331.1816)" gradientUnits="userSpaceOnUse">
	<stop  offset="0" style="stop-color:#801AB3;stop-opacity:0"/>
	<stop  offset="1" style="stop-color:#4C4CFF"/>
</radialGradient>
<path style="fill-rule:evenodd;clip-rule:evenodd;fill:url(#SVGID_00000134971948760391262390000000256960066531517056_);fill-opacity:0.25;" d="
	M15.4,47.1c-5.8,8.1-5.8,19.1,0,27.2l20,27.8c5.8,8.1,16.1,11.5,25.6,8.4l32.3-10.6c9.4-3.1,15.8-12,15.8-22V43.5
	c0-10-6.4-18.9-15.8-22L60.9,10.8c-9.4-3.1-19.7,0.3-25.6,8.4L15.4,47.1z"/>
<radialGradient id="SVGID_00000000222962137044501020000005543855423386484383_" cx="-473.6097" cy="1049.7214" r="1" gradientTransform="matrix(-34.0001 32.6665 24.573 25.5762 -41837.5859 -11315.9961)" gradientUnits="userSpaceOnUse">
	<stop  offset="0" style="stop-color:#801AB3;stop-opacity:0"/>
	<stop  offset="1" style="stop-color:#4C4CFF;stop-opacity:0.5"/>
</radialGradient>
<path style="fill-rule:evenodd;clip-rule:evenodd;fill:url(#SVGID_00000000222962137044501020000005543855423386484383_);fill-opacity:0.25;" d="
	M50.9,30.9c5.4-3.9,12.7-3.9,18.2,0l18.6,13.3c5.4,3.9,7.7,10.8,5.6,17l-7.1,21.5c-2.1,6.3-8,10.5-14.7,10.5H48.5
	c-6.7,0-12.6-4.3-14.7-10.5l-7.1-21.5c-2.1-6.3,0.2-13.2,5.6-17L50.9,30.9z"/>
</svg>
